<svg id="Layer_1" data-name="Layer 1" xmlns="http://www.w3.org/2000/svg" viewBox="0 0 130 34">
  <defs>
    <style>
      .cls-1 {
        fill: #ec0000;
      }

      .cls-2 {
        fill: #fff;
      }
    </style>
  </defs>
  <title>button-findoutmore</title>
  <rect class="cls-1" width="130" height="34" rx="16.99998" ry="16.99998"/>
  <g>
    <path class="cls-2" d="M20.05566,21.292H18.667v-8.5664h4.834v1.18359H20.05566v2.67773h3.22852v1.18946H20.05566Z"/>
    <path class="cls-2" d="M25.05371,21.292v-8.5664H26.4541V21.292Z"/>
    <path class="cls-2" d="M35.85254,21.292h-1.7168l-4.21289-6.82617H29.876l.02929.38086q.082,1.08984.082,1.99219V21.292H28.71582v-8.5664H30.415l4.20117,6.791h.03516q-.01173-.13476-.04688-.98144t-.03515-1.32129V12.72559h1.2832Z"/>
    <path class="cls-2" d="M45.08105,16.92676a4.26908,4.26908,0,0,1-1.17773,3.24316A4.73038,4.73038,0,0,1,40.51074,21.292H38.11426v-8.5664H40.7627a4.3819,4.3819,0,0,1,3.18164,1.10156A4.11609,4.11609,0,0,1,45.08105,16.92676Zm-1.47656.04687q0-3.07617-2.877-3.07617H39.51465v6.2168h.99609Q43.60449,20.11426,43.60449,16.97363Z"/>
    <path class="cls-2" d="M57.64355,16.99707a4.68591,4.68591,0,0,1-1.04589,3.252,4.3957,4.3957,0,0,1-5.94141.00879,4.71514,4.71514,0,0,1-1.04-3.27246,4.642,4.642,0,0,1,1.0459-3.25781,3.85377,3.85377,0,0,1,2.98535-1.13672,3.77589,3.77589,0,0,1,2.95313,1.1543A4.681,4.681,0,0,1,57.64355,16.99707Zm-6.53906,0a3.84122,3.84122,0,0,0,.63867,2.39941,2.59918,2.59918,0,0,0,3.77637.00879,3.84791,3.84791,0,0,0,.63574-2.4082,3.85624,3.85624,0,0,0-.62988-2.39062,2.22693,2.22693,0,0,0-1.87793-.81446,2.27353,2.27353,0,0,0-1.90137.81446A3.80421,3.80421,0,0,0,51.10449,16.99707Z"/>
    <path class="cls-2" d="M66.19824,12.72559v5.543a3.28751,3.28751,0,0,1-.40722,1.66114,2.71354,2.71354,0,0,1-1.17774,1.0957,4.09307,4.09307,0,0,1-1.84277.38379,3.44714,3.44714,0,0,1-2.47852-.84375,3.05371,3.05371,0,0,1-.88476-2.32031V12.72559h1.40625v5.41992A2.16562,2.16562,0,0,0,61.30566,19.71a2.02884,2.02884,0,0,0,1.51172.50391q1.98048,0,1.98047-2.08008v-5.4082Z"/>
    <path class="cls-2" d="M71.34863,21.292H69.94824V13.92676H67.42871V12.72559h6.43945v1.20117H71.34863Z"/>
    <path class="cls-2" d="M82.001,21.292,79.5166,14.1377h-.04687q.0996,1.59375.09961,2.98828v4.166H78.29785v-8.5664h1.97461L82.65137,19.54h.03515l2.44922-6.81445h1.98047V21.292H85.76855V17.05566q0-.63867.03223-1.66406t.05567-1.24219h-.04688L83.2373,21.292Z"/>
    <path class="cls-2" d="M96.97754,16.99707a4.68587,4.68587,0,0,1-1.0459,3.252,4.3957,4.3957,0,0,1-5.94141.00879,4.71518,4.71518,0,0,1-1.04-3.27246,4.642,4.642,0,0,1,1.04589-3.25781,3.8538,3.8538,0,0,1,2.98536-1.13672,3.77586,3.77586,0,0,1,2.95312,1.1543A4.681,4.681,0,0,1,96.97754,16.99707Zm-6.53906,0a3.84122,3.84122,0,0,0,.63867,2.39941,2.59918,2.59918,0,0,0,3.77637.00879,3.848,3.848,0,0,0,.63574-2.4082,3.85624,3.85624,0,0,0-.62988-2.39062,2.22694,2.22694,0,0,0-1.87793-.81446,2.27351,2.27351,0,0,0-1.90137.81446A3.80414,3.80414,0,0,0,90.43848,16.99707Z"/>
    <path class="cls-2" d="M100.21777,17.87012V21.292H98.81738v-8.5664h2.41992a3.97607,3.97607,0,0,1,2.45508.62109,2.23,2.23,0,0,1,.79688,1.875,2.34376,2.34376,0,0,1-1.66406,2.2793l2.41992,3.791h-1.59375l-2.05078-3.42187Zm0-1.16016h.97266a2.221,2.221,0,0,0,1.418-.36328,1.318,1.318,0,0,0,.43945-1.07813,1.16036,1.16036,0,0,0-.47461-1.043,2.6022,2.6022,0,0,0-1.42969-.31641h-.92578Z"/>
    <path class="cls-2" d="M111.333,21.292H106.4873v-8.5664H111.333v1.18359H107.8877v2.332h3.22851v1.17188H107.8877v2.68945H111.333Z"/>
  </g>
</svg>
