<svg id="Layer_1" data-name="Layer 1" xmlns="http://www.w3.org/2000/svg" viewBox="0 0 132 37">
  <defs>
    <style>
      .cls-1 {
        fill: #ec0000;
      }

      .cls-2 {
        fill: #fff;
      }
    </style>
  </defs>
  <title>button-findoutmore</title>
  <g>
    <rect class="cls-1" width="132" height="37" rx="18.49998" ry="18.49998"/>
    <g>
      <path class="cls-2" d="M17.31055,23.14966H15.80566V13.86938H21.043v1.28223H17.31055v2.90088h3.49707v1.28857H17.31055Z"/>
      <path class="cls-2" d="M22.72461,23.14966V13.86938h1.51758v9.28028Z"/>
      <path class="cls-2" d="M34.4248,23.14966H32.56445l-4.56347-7.395H27.9502l.03125.4126q.08936,1.18067.08886,2.1582v4.82422H26.69238V13.86938h1.8418L33.085,21.22632h.03809q-.01319-.14576-.05078-1.063-.03809-.91773-.03809-1.43164V13.86938H34.4248Z"/>
      <path class="cls-2" d="M44.42188,18.42065a4.62063,4.62063,0,0,1-1.27637,3.51319,5.12112,5.12112,0,0,1-3.67481,1.21582H36.874V13.86938h2.86914a4.74848,4.74848,0,0,1,3.44727,1.19336A4.45786,4.45786,0,0,1,44.42188,18.42065Zm-1.59961.05079q0-3.33252-3.11622-3.33252H38.3916v6.73486h1.0791Q42.82227,21.87378,42.82227,18.47144Z"/>
      <path class="cls-2" d="M58.03125,18.49683a5.0743,5.0743,0,0,1-1.13379,3.523,4.76235,4.76235,0,0,1-6.43652.00976,5.11067,5.11067,0,0,1-1.127-3.54541,5.02676,5.02676,0,0,1,1.13379-3.5293,4.1736,4.1736,0,0,1,3.2334-1.23144,4.09013,4.09013,0,0,1,3.19922,1.25049A5.06771,5.06771,0,0,1,58.03125,18.49683Zm-7.084,0a4.16177,4.16177,0,0,0,.6914,2.59912,2.81524,2.81524,0,0,0,4.09082.00976,4.16964,4.16964,0,0,0,.68848-2.60888,4.17733,4.17733,0,0,0-.68164-2.58985,2.41248,2.41248,0,0,0-2.03516-.88232,2.46349,2.46349,0,0,0-2.05957.88232A4.12506,4.12506,0,0,0,50.94727,18.49683Z"/>
      <path class="cls-2" d="M67.29883,13.86938v6.00489a3.56533,3.56533,0,0,1-.44141,1.7998,2.93894,2.93894,0,0,1-1.27637,1.18653,4.4314,4.4314,0,0,1-1.99609.416,3.73208,3.73208,0,0,1-2.68457-.91406,3.30607,3.30607,0,0,1-.959-2.51367v-5.9795h1.52343V19.741a2.34554,2.34554,0,0,0,.53321,1.69482,2.19854,2.19854,0,0,0,1.63769.5459q2.146,0,2.14551-2.25342V13.86938Z"/>
      <path class="cls-2" d="M72.87793,23.14966h-1.5166v-7.979H68.63086V13.86938h6.97656v1.30127H72.87793Z"/>
      <path class="cls-2" d="M84.417,23.14966l-2.6914-7.75049H81.6748q.1084,1.72632.1084,3.2373v4.51319H80.40527V13.86938h2.13965l2.57715,7.38233h.03809l2.65332-7.38233H89.959v9.28028h-1.46V18.5603q0-.69213.03516-1.80273.03516-1.11108.06055-1.3457H88.544l-2.78711,7.73779Z"/>
      <path class="cls-2" d="M100.64355,18.49683a5.07435,5.07435,0,0,1-1.13378,3.523,4.76236,4.76236,0,0,1-6.43653.00976,5.11072,5.11072,0,0,1-1.12695-3.54541,5.02676,5.02676,0,0,1,1.13379-3.5293,4.17358,4.17358,0,0,1,3.2334-1.23144,4.09013,4.09013,0,0,1,3.19922,1.25049A5.06776,5.06776,0,0,1,100.64355,18.49683Zm-7.084,0a4.16177,4.16177,0,0,0,.69141,2.59912,2.81524,2.81524,0,0,0,4.09082.00976,4.1697,4.1697,0,0,0,.68847-2.60888,4.17733,4.17733,0,0,0-.68164-2.58985,2.41247,2.41247,0,0,0-2.03515-.88232,2.46348,2.46348,0,0,0-2.05957.88232A4.12506,4.12506,0,0,0,93.55957,18.49683Z"/>
      <path class="cls-2" d="M104.15332,19.44263v3.707h-1.51758V13.86938h2.62207a4.30467,4.30467,0,0,1,2.65918.67286,2.414,2.414,0,0,1,.86328,2.03125,2.53851,2.53851,0,0,1-1.80273,2.46923l2.62207,4.10694h-1.72656l-2.22168-3.707Zm0-1.25684H105.207a2.40649,2.40649,0,0,0,1.53613-.39355,1.42815,1.42815,0,0,0,.47657-1.168,1.25722,1.25722,0,0,0-.51465-1.12989,2.81991,2.81991,0,0,0-1.54883-.34277h-1.00293Z"/>
      <path class="cls-2" d="M116.19434,23.14966h-5.25V13.86938h5.25v1.28223h-3.73243V17.678h3.498v1.26953h-3.498v2.91357h3.73243Z"/>
    </g>
  </g>
</svg>
