<svg id="Layer_1" data-name="Layer 1" xmlns="http://www.w3.org/2000/svg" viewBox="0 0 160 58.27072">
  <defs>
    <style>
      .cls-1 {
        fill: none;
      }

      .cls-2 {
        fill: #ec0000;
      }
    </style>
  </defs>
  <title>logo-santander-withclearspace</title>
  <g>
    <rect class="cls-1" width="160" height="58.27072"/>
    <path class="cls-2" d="M145.81287,16.52979a15.76809,15.76809,0,0,0-4.42688.65917v11.7735h2.59027V18.88434a13.01435,13.01435,0,0,1,1.90722-.14124,16.68624,16.68624,0,0,1,1.95441.0943,9.64091,9.64091,0,0,0,.23547-2.21356A21.124,21.124,0,0,0,145.81287,16.52979Zm-11.96241,0c-4.1206,0-5.74536,2.77844-5.74536,6.287,0,4.02649,2.09564,6.42816,6.42823,6.42816a8.90819,8.90819,0,0,0,3.81463-.75347c.16492-.777.30615-1.6717.40027-2.35456a10.09579,10.09579,0,0,1-4.14429.89472c-2.30761,0-3.532-1.01252-3.86157-3.1081h8.26483a13.80341,13.80341,0,0,0,.14142-2.00152C139.14862,18.955,137.54736,16.52979,133.85046,16.52979Zm-3.15521,5.22735c.21185-2.00152,1.17737-3.06116,3.014-3.06116,1.78967,0,2.82562,1.13025,2.82562,3.06116ZM59.41541,29.24493a3.61316,3.61316,0,0,0,3.32012-1.69519l.14124,1.41272H65.255V17.189a13.19788,13.19788,0,0,0-4.45037-.65917c-4.3562,0-6.56952,2.35455-6.56952,6.499C54.23511,26.9845,56.30719,29.24493,59.41541,29.24493ZM60.80463,18.7431a10.69993,10.69993,0,0,1,1.86016.14124v7.3938a4.056,4.056,0,0,1-2.51947.84771c-2.30755,0-3.273-1.69531-3.273-4.097C56.87231,20.39154,58.12024,18.7431,60.80463,18.7431Zm36.264,8.80664.14124,1.41272h2.37823V17.189a13.19788,13.19788,0,0,0-4.45037-.65917c-4.35627,0-6.56952,2.35455-6.56952,6.499,0,3.95569,2.072,6.21612,5.1803,6.21612A3.61316,3.61316,0,0,0,97.06866,27.54974Zm-5.86328-4.52093c0-2.63727,1.248-4.28571,3.93238-4.28571a10.69928,10.69928,0,0,1,1.8601.14124v7.3938a4.05608,4.05608,0,0,1-2.51953.84771C92.1709,27.12585,91.20538,25.43054,91.20538,23.02881ZM75.9223,21.49811v7.46435h2.59009V21.05078c0-2.8493-1.38922-4.521-5.72186-4.521a22.06538,22.06538,0,0,0-4.70935.65917v11.7735h2.59008V18.93152a12.98383,12.98383,0,0,1,2.04865-.18842C75.31,18.7431,75.9223,19.63806,75.9223,21.49811Zm9.3017,7.74682a5.87681,5.87681,0,0,0,2.18976-.3767c.14135-.68274.23553-1.48334.30615-2.1897a5.87144,5.87144,0,0,1-2.02509.35309c-1.24792,0-2.0014-.58863-2.0014-2.11908V19.14337h3.86169A19.94454,19.94454,0,0,0,87.79053,16.93H83.69342V12.47961a8.95625,8.95625,0,0,0-2.59021.37677V25.21851C81.10321,28.09125,82.70441,29.24493,85.224,29.24493ZM29.89569,16.83557a5.43488,5.43488,0,0,0-.7229-2.483L25.24744,7.55371a5.43283,5.43283,0,0,1-.621-1.6438l-.164.28412a5.43867,5.43867,0,0,0-.00012,5.43884l3.14032,5.43921a5.43917,5.43917,0,0,1,0,5.439l-.16406.28412a5.43367,5.43367,0,0,0-.621-1.6438L23.94275,16.172l-1.83557-3.17932a5.43544,5.43544,0,0,1-.621-1.64374l-.164.28412a5.4388,5.4388,0,0,0-.00958,5.42181l-.0003.00012,3.15014,5.45612a5.43915,5.43915,0,0,1,0,5.439l-.16412.28412a5.43247,5.43247,0,0,0-.62091-1.6438l-3.92535-6.79882a5.43573,5.43573,0,0,1-.723-2.95527c-4.20214,1.09784-7.10247,3.429-7.10247,6.128,0,3.75488,5.61248,6.79876,12.53582,6.79876s12.53577-3.04388,12.53577-6.79876C36.99823,20.2652,34.09808,17.93347,29.89569,16.83557Zm96.08966-4.356a7.86494,7.86494,0,0,0-2.56665.35328v3.88525a10.13221,10.13221,0,0,0-1.93091-.18835c-4.35608,0-6.56946,2.35455-6.56946,6.499,0,3.95569,2.07215,6.21612,5.18024,6.21612a3.56925,3.56925,0,0,0,3.36725-1.78942l.14124,1.50695h2.37829ZM123.4187,26.231a4.15082,4.15082,0,0,1-2.59009.89489c-2.30767,0-3.273-1.69531-3.273-4.097,0-2.68439,1.22437-4.28571,3.791-4.28571a10.356,10.356,0,0,1,2.07214.23554Zm-13.16327-4.73285v7.46435h2.59009V21.05078c0-2.8493-1.38922-4.521-5.72186-4.521a22.06538,22.06538,0,0,0-4.70935.65917v11.7735h2.59008V18.93152a12.98246,12.98246,0,0,1,2.04865-.18842C109.64313,18.7431,110.25543,19.63806,110.25543,21.49811ZM48.37134,19.87335l-1.27155-.54144c-1.64831-.70654-2.56665-1.4129-2.56665-2.63745,0-1.2478.9419-2.04846,2.99042-2.04846a11.943,11.943,0,0,1,3.86182.68292,9.04837,9.04837,0,0,0,.47082-2.3548,12.91822,12.91822,0,0,0-4.309-.68286c-3.81458,0-5.6748,1.719-5.6748,4.4032,0,2.496,1.507,3.744,3.72039,4.70959l1.20087.51795c2.21344.96539,3.10822,1.60113,3.10822,2.96685,0,1.38929-1.22443,2.09565-3.41425,2.09565a10.99948,10.99948,0,0,1-4.30914-.91822,7.91465,7.91465,0,0,0-.44733,2.37824,11.33068,11.33068,0,0,0,4.82709.89471c4.00293,0,6.05145-1.86029,6.05145-4.56811C52.60968,22.48712,51.36182,21.145,48.37134,19.87335Zm.25427,18.41126a11.89024,11.89024,0,0,0-2.99945.44677v7.97736h1.11676V39.49719a8.37507,8.37507,0,0,1,1.85071-.22333c1.96246,0,2.52087.76581,2.52087,2.24958v5.1853h1.11682V41.3161C52.23132,39.38556,51.3219,38.28461,48.62561,38.28461Zm6.70044,5.93524V39.52911h2.77612a6.04791,6.04791,0,0,0,.11158-1.00512h-2.8877V35.57233a3.88143,3.88143,0,0,0-1.11682.17553v8.59961a2.2339,2.2339,0,0,0,2.473,2.55274,4.07223,4.07223,0,0,0,1.436-.25531c.06366-.30316.11158-.65418.1435-.95728a4.18452,4.18452,0,0,1-1.38806.25531C55.8844,45.94293,55.32605,45.43231,55.32605,44.21985Zm7.22717-5.93524c-2.61651,0-3.68548,1.88269-3.68548,4.25988,0,2.74427,1.40405,4.35572,4.06842,4.35572a4.85334,4.85334,0,0,0,2.53686-.60633,10.56392,10.56392,0,0,0,.17542-1.0689,5.40943,5.40943,0,0,1-2.68036.686c-1.81873,0-2.82385-1.02112-2.96753-2.93567h5.90332a6.7477,6.7477,0,0,0,.06366-.98919C65.96753,39.928,64.94641,38.28461,62.55322,38.28461Zm2.29761,3.6856H60.00055c.12775-1.65924.90936-2.71228,2.50494-2.71228,1.57947,0,2.34534,1.06891,2.34534,2.64844Zm2.87128-3.23883v7.97736h1.11682V39.4494a7.94724,7.94724,0,0,1,1.56354-.17554,9.71211,9.71211,0,0,1,1.22839.06379,3.93889,3.93889,0,0,0,.11175-.95722,11.13788,11.13788,0,0,0-1.37213-.0639A9.21228,9.21228,0,0,0,67.72211,38.73138ZM41.7652,46.70874h1.11688V35.57233a4.81827,4.81827,0,0,0-1.11688.17553Zm69.55847-8.42413a11.8914,11.8914,0,0,0-2.99945.44677v7.97736h1.11688V39.49719a8.37412,8.37412,0,0,1,1.85065-.22333c1.9624,0,2.52087.76581,2.52087,2.24958v5.1853h1.11676V41.3161C114.92938,39.38556,114.02,38.28461,111.32367,38.28461Zm-35.09808,0a11.89088,11.89088,0,0,0-2.99945.44677v7.97736H74.343V39.49719a8.37361,8.37361,0,0,1,1.85064-.22333c1.96235,0,2.52088.76581,2.52088,2.24958v5.1853h1.1167V41.3161C79.83124,39.38556,78.92188,38.28461,76.22559,38.28461ZM125.65,46.70874h1.11689V35.57233a4.81724,4.81724,0,0,0-1.11689.17553Zm-22.86157-8.42413c-2.473,0-3.94086,1.65936-3.94086,4.35571,0,2.457,1.2923,4.25989,3.8451,4.25989,2.52093,0,3.95672-1.6593,3.95672-4.38751C106.64935,40.08759,105.373,38.28461,102.78839,38.28461Zm-.03192,7.61047c-1.81885,0-2.77612-1.19665-2.77612-3.33459,0-1.96241.90936-3.27063,2.77612-3.27063,1.8028,0,2.76019,1.21246,2.76019,3.30255C105.51666,44.60266,104.60712,45.89508,102.75647,45.89508Zm13.81567-3.23883c0,2.72827,1.40406,4.244,3.66956,4.244a3.2323,3.2323,0,0,0,2.16992-.81366l.03192.62219h1.03705V38.73138a7.24934,7.24934,0,0,0-2.66443-.44677C117.96021,38.28461,116.57214,39.84821,116.57214,42.65625Zm5.79157,2.50488a2.81588,2.81588,0,0,1-2.02625.81366c-1.73907,0-2.63244-1.26037-2.63244-3.31854,0-2.13794.9732-3.38239,3.11114-3.38239a5.8715,5.8715,0,0,1,1.54755.19147ZM91.573,44.21985V39.52911h2.77612a6.0597,6.0597,0,0,0,.11157-1.00512H91.573V35.57233a3.88151,3.88151,0,0,0-1.11688.17553v8.59961a2.23392,2.23392,0,0,0,2.473,2.55274,4.072,4.072,0,0,0,1.43591-.25531c.06372-.30316.11157-.65418.14349-.95728a4.18442,4.18442,0,0,1-1.38806.25531C92.13135,45.94293,91.573,45.43231,91.573,44.21985Zm-10.09894-1.5636c0,2.72827,1.40405,4.244,3.66956,4.244a3.232,3.232,0,0,0,2.16986-.81366l.03192.62219h1.03705V38.73138a7.24884,7.24884,0,0,0-2.66437-.44677C82.86212,38.28461,81.47406,39.84821,81.47406,42.65625Zm5.79156,2.50488a2.81585,2.81585,0,0,1-2.02624.81366c-1.73907,0-2.63251-1.26037-2.63251-3.31854,0-2.13794.97321-3.38239,3.11121-3.38239a5.87169,5.87169,0,0,1,1.54754.19147Zm9.34852-9.46106a.72953.72953,0,0,0-.74994.74982.71662.71662,0,0,0,.74994.73389.70365.70365,0,0,0,.73394-.73389A.7166.7166,0,0,0,96.61414,35.70007Zm-.55835,11.00867h1.11682V38.47607H96.05579Z" transform="translate(0 -0.36464)"/>
  </g>
</svg>
