<svg id="Layer_1" data-name="Layer 1" xmlns="http://www.w3.org/2000/svg" viewBox="0 0 111 37">
  <defs>
    <style>
      .cls-1 {
        fill: #ec0000;
      }

      .cls-2 {
        fill: #fff;
      }
    </style>
  </defs>
  <title>button-findoutmore</title>
  <g>
    <rect class="cls-1" width="111" height="37" rx="18.49998" ry="18.49998"/>
    <g>
      <path class="cls-2" d="M13.72388,22.43408H12.08569V14.582h4.501v1.36426H13.72388v2.0249h2.66406v1.3584H13.72388Z"/>
      <path class="cls-2" d="M18.1228,22.43408V14.582h1.665v7.85205Z"/>
      <path class="cls-2" d="M28.73071,22.43408H26.6145l-3.416-5.93994h-.04834q.1018,1.574.102,2.24512v3.69482H21.7644V14.582h2.1001l3.41065,5.88135h.03759q-.08057-1.53077-.08056-2.16455V14.582h1.49853Z"/>
      <path class="cls-2" d="M37.22241,18.43311a3.86507,3.86507,0,0,1-1.104,2.96972,4.49986,4.49986,0,0,1-3.1875,1.03125H30.70728V14.582h2.46533a4.15181,4.15181,0,0,1,2.98633,1.01514A3.73406,3.73406,0,0,1,37.22241,18.43311Zm-1.72949.043q0-2.52978-2.23438-2.52978h-.88623v5.11279h.71436Q35.49267,21.05908,35.49292,18.47607Z"/>
      <path class="cls-2" d="M48.83423,18.49756a4.261,4.261,0,0,1-.9668,2.99707,3.58272,3.58272,0,0,1-2.771,1.04687A3.58385,3.58385,0,0,1,42.325,21.49463a4.27827,4.27827,0,0,1-.9668-3.00781,4.22159,4.22159,0,0,1,.96924-2.99463,3.62752,3.62752,0,0,1,2.77979-1.03369,3.57577,3.57577,0,0,1,2.769,1.042A4.27463,4.27463,0,0,1,48.83423,18.49756Zm-5.73047,0a3.27787,3.27787,0,0,0,.49951,1.98144,1.74674,1.74674,0,0,0,1.49317.666q1.99291,0,1.99267-2.64746,0-2.65356-1.98193-2.65332a1.76034,1.76034,0,0,0-1.49854.66846A3.26894,3.26894,0,0,0,43.10376,18.49756Z"/>
      <path class="cls-2" d="M56.85376,14.582V19.6626a2.927,2.927,0,0,1-.38965,1.52539,2.53721,2.53721,0,0,1-1.125,1.00488,4.027,4.027,0,0,1-1.74023.34863,3.33151,3.33151,0,0,1-2.35254-.77636,2.75054,2.75054,0,0,1-.83789-2.124V14.582h1.65918v4.80713a2.01713,2.01713,0,0,0,.36523,1.332,1.52207,1.52207,0,0,0,1.209.42383,1.48685,1.48685,0,0,0,1.18457-.42676,2.02572,2.02572,0,0,0,.36816-1.33984V14.582Z"/>
      <path class="cls-2" d="M61.80591,22.43408h-1.665V15.96777H58.009V14.582h5.92969v1.38574H61.80591Z"/>
      <path class="cls-2" d="M71.32837,22.43408l-1.89063-6.16015h-.04785q.10254,1.88011.10254,2.5083v3.65185H68.00415V14.582h2.2666l1.8584,6.0044h.03223l1.97168-6.0044h2.26562v7.85205H74.84692V18.71777q0-.26293.00782-.60693.00879-.3435.07324-1.82617h-.04883l-2.02539,6.14941Z"/>
      <path class="cls-2" d="M85.50317,18.49756a4.261,4.261,0,0,1-.96679,2.99707,4.19205,4.19205,0,0,1-5.543,0,4.27827,4.27827,0,0,1-.9668-3.00781,4.21943,4.21943,0,0,1,.96973-2.99463,3.62791,3.62791,0,0,1,2.78027-1.03369,3.57537,3.57537,0,0,1,2.76856,1.042A4.27462,4.27462,0,0,1,85.50317,18.49756Zm-5.73046,0a3.2709,3.2709,0,0,0,.5,1.98144,1.74424,1.74424,0,0,0,1.49218.666q1.99365,0,1.99317-2.64746,0-2.65356-1.98145-2.65332a1.76127,1.76127,0,0,0-1.499.66846A3.2655,3.2655,0,0,0,79.77271,18.49756Z"/>
      <path class="cls-2" d="M88.79517,19.42139v3.01269h-1.665V14.582h2.28808a3.91183,3.91183,0,0,1,2.36817.583,2.07745,2.07745,0,0,1,.76855,1.76953A2.07755,2.07755,0,0,1,92.1731,18.167a2.51467,2.51467,0,0,1-1.07911.84619q1.77246,2.647,2.30957,3.4209H91.55591l-1.875-3.01269Zm0-1.35352h.53711a2.05292,2.05292,0,0,0,1.165-.26318.93907.93907,0,0,0,.377-.82715.86.86,0,0,0-.38477-.79492,2.32719,2.32719,0,0,0-1.18945-.23633h-.50488Z"/>
      <path class="cls-2" d="M98.91431,22.43408H94.39185V14.582h4.52246v1.36426H96.05688v1.72412h2.65918v1.36426H96.05688v2.02441h2.85743Z"/>
    </g>
  </g>
</svg>
