<svg id="Layer_1" data-name="Layer 1" xmlns="http://www.w3.org/2000/svg" viewBox="0 0 159 57.90653">
  <defs>
    <style>
      .cls-1 {
        fill: none;
      }

      .cls-2 {
        fill: #ec0000;
      }
    </style>
  </defs>
  <title>logo-santander-withclearspace</title>
  <g>
    <rect class="cls-1" width="159" height="57.90653"/>
    <path class="cls-2" d="M96.462,27.062l.14031,1.40387H98.9657V16.76593a13.11481,13.11481,0,0,0-4.42255-.65509c-4.329,0-6.5285,2.33984-6.5285,6.45837,0,3.931,2.05908,6.17737,5.14795,6.17737A3.59065,3.59065,0,0,0,96.462,27.062Zm-5.82667-4.49274c0-2.62072,1.24024-4.25885,3.90784-4.25885a10.62948,10.62948,0,0,1,1.84845.14032v7.34754a4.0301,4.0301,0,0,1-2.50372.84253C91.59485,26.64075,90.63531,24.95593,90.63531,22.56921ZM48.069,19.43353l-1.26361-.53808c-1.638-.70209-2.5506-1.40406-2.5506-2.62091,0-1.24006.936-2.03571,2.97174-2.03571a11.8694,11.8694,0,0,1,3.83765.67865,8.9916,8.9916,0,0,0,.46789-2.34009A12.83715,12.83715,0,0,0,47.25,11.8988c-3.79071,0-5.63934,1.70832-5.63934,4.37574,0,2.4804,1.49756,3.72058,3.6972,4.68011l1.19336.51471c2.19959.95935,3.08875,1.59113,3.08875,2.9483,0,1.38056-1.2168,2.08252-3.39289,2.08252a10.92978,10.92978,0,0,1-4.28222-.91247,7.866,7.866,0,0,0-.44458,2.3634,11.26045,11.26045,0,0,0,4.797.88916c3.97785,0,6.01361-1.84869,6.01361-4.53961C52.28088,22.03094,51.04077,20.69727,48.069,19.43353Zm36.62232,9.31305a5.84014,5.84014,0,0,0,2.17608-.37439c.14044-.67846.23407-1.47412.3042-2.176a5.83478,5.83478,0,0,1-2.01239.35089c-1.24011,0-1.98889-.585-1.98889-2.10584V18.70807h3.83752a19.81262,19.81262,0,0,0,.234-2.19953H83.17035V12.086a8.90108,8.90108,0,0,0-2.574.37439V24.74524C80.59631,27.6,82.1875,28.74658,84.69135,28.74658Zm-25.64728,0A3.59069,3.59069,0,0,0,62.34344,27.062l.14032,1.40387h2.36341V16.76593a13.11481,13.11481,0,0,0-4.42255-.65509c-4.329,0-6.5285,2.33984-6.5285,6.45837C53.89612,26.50018,55.95526,28.74658,59.04407,28.74658Zm1.38055-10.43622a10.63021,10.63021,0,0,1,1.84851.14032v7.34754a4.03037,4.03037,0,0,1-2.50372.84253c-2.29309,0-3.2525-1.68482-3.2525-4.07154C56.51691,19.94849,57.757,18.31036,60.42462,18.31036Zm15.02313,2.7378v7.41766h2.57392V20.60358c0-2.83149-1.38056-4.49274-5.6861-4.49274a21.92839,21.92839,0,0,0-4.67993.65509V28.46582h2.57391V18.49756a12.909,12.909,0,0,1,2.03589-.1872C74.83936,18.31036,75.44775,19.19965,75.44775,21.04816ZM29.7088,16.41473a5.39978,5.39978,0,0,0-.71838-2.46746L25.0896,7.19086a5.39929,5.39929,0,0,1-.61707-1.63355l-.163.28241a5.40473,5.40473,0,0,0-.00012,5.40479l3.12066,5.40521a5.405,5.405,0,0,1,0,5.405l-.163.28241A5.39814,5.39814,0,0,0,26.65,20.70361l-2.85693-4.9483L21.969,12.59583a5.4012,5.4012,0,0,1-.61706-1.63349l-.163.28241a5.40477,5.40477,0,0,0-.00946,5.38788l-.0003.00018,3.13043,5.422a5.405,5.405,0,0,1,0,5.405l-.16309.28235a5.39811,5.39811,0,0,0-.61706-1.63355L19.6286,19.35229a5.40236,5.40236,0,0,1-.71844-2.93676c-4.17585,1.09094-7.05805,3.40753-7.05805,6.08966,0,3.73144,5.57739,6.75628,12.45746,6.75628S36.767,26.23663,36.767,22.50519C36.767,19.82294,33.885,17.50574,29.7088,16.41473Zm79.85748,4.63343v7.41766h2.574V20.60358c0-2.83149-1.38062-4.49274-5.6861-4.49274a21.92738,21.92738,0,0,0-4.67993.65509V28.46582h2.57391V18.49756a12.90634,12.90634,0,0,1,2.03583-.1872C108.95789,18.31036,109.56628,19.19965,109.56628,21.04816ZM125.19794,12.086a7.81566,7.81566,0,0,0-2.5506.35107v3.861a10.07,10.07,0,0,0-1.91882-.18719c-4.32886,0-6.52839,2.33984-6.52839,6.45837,0,3.931,2.05915,6.17737,5.14783,6.17737a3.547,3.547,0,0,0,3.34619-1.77832l.14038,1.49756h2.36341Zm-2.5506,13.6654a4.12513,4.12513,0,0,1-2.57391.88935c-2.29322,0-3.25257-1.68482-3.25257-4.07154,0-2.6676,1.21674-4.25885,3.76727-4.25885a10.2946,10.2946,0,0,1,2.05921.234Zm22.25421-9.64056a15.668,15.668,0,0,0-4.39923.65509V28.46582h2.5741V18.45068a12.92938,12.92938,0,0,1,1.89532-.14032,16.57865,16.57865,0,0,1,1.94214.09369,9.58284,9.58284,0,0,0,.234-2.1997A20.98737,20.98737,0,0,0,144.90155,16.11084Zm-11.88763,0c-4.09485,0-5.70948,2.76111-5.70948,6.24768,0,4.00134,2.08252,6.38806,6.38806,6.38806a8.852,8.852,0,0,0,3.79078-.74884c.16388-.77209.30426-1.66125.39776-2.33984a10.03222,10.03222,0,0,1-4.11834.88916c-2.29322,0-3.50989-1.00617-3.83747-3.08869h8.2132a13.72021,13.72021,0,0,0,.1405-1.989C138.27893,18.52087,136.68768,16.11084,133.01392,16.11084Zm-3.13556,5.19464c.21057-1.98895,1.17-3.042,2.99518-3.042,1.77844,0,2.808,1.12323,2.808,3.042ZM48.32166,37.72974a11.81445,11.81445,0,0,0-2.98066.444V46.1012h1.10981V38.93469a8.32265,8.32265,0,0,1,1.83911-.22186c1.95025,0,2.50506.761,2.50506,2.23547v5.1529h1.10993V40.74225C51.90491,38.82373,51.00116,37.72974,48.32166,37.72974Zm67.52191,4.3443c0,2.71118,1.39526,4.2174,3.6466,4.2174a3.21171,3.21171,0,0,0,2.15638-.80859l.03167.61835h1.03058V38.17371a7.20279,7.20279,0,0,0-2.6477-.444C117.223,37.72974,115.84357,39.28351,115.84357,42.074Zm5.75537,2.48919a2.79813,2.79813,0,0,1-2.01355.8086c-1.72821,0-2.616-1.25251-2.616-3.29779,0-2.12464.9671-3.36121,3.09174-3.36121a5.83423,5.83423,0,0,1,1.53784.19025Zm-66.61865-.93542V38.96643h2.75878a6.00832,6.00832,0,0,0,.11084-.99884H54.98029V35.03442a3.85838,3.85838,0,0,0-1.10987.17438v8.54584a2.22,2.22,0,0,0,2.45752,2.5368,4.04675,4.04675,0,0,0,1.427-.25372c.0633-.30121.11084-.65.14258-.95129a4.158,4.158,0,0,1-1.37939.25372C55.53516,45.34015,54.98029,44.83276,54.98029,43.62781Zm69.8844,2.47339h1.10986V35.03442a4.786,4.786,0,0,0-1.10986.17438Zm-83.36048,0h1.10986V35.03442a4.78667,4.78667,0,0,0-1.10986.17438ZM80.96484,42.074c0,2.71118,1.39527,4.2174,3.64661,4.2174a3.21151,3.21151,0,0,0,2.15631-.80859l.03174.61835h1.03058V38.17371a7.203,7.203,0,0,0-2.64777-.444C82.34424,37.72974,80.96484,39.28351,80.96484,42.074Zm5.75537,2.48919a2.79836,2.79836,0,0,1-2.01361.8086c-1.72821,0-2.616-1.25251-2.616-3.29779,0-2.12464.96716-3.36121,3.09173-3.36121a5.83426,5.83426,0,0,1,1.5379.19025ZM102.146,37.72974c-2.45758,0-3.91626,1.649-3.91626,4.32843,0,2.44159,1.28424,4.23327,3.8211,4.23327,2.50513,0,3.932-1.64892,3.932-4.3601C105.98279,39.52136,104.71442,37.72974,102.146,37.72974Zm-.03174,7.56286c-1.8075,0-2.75879-1.18915-2.75879-3.31372,0-1.95013.90369-3.25024,2.75879-3.25024,1.7915,0,2.74292,1.205,2.74292,3.28192C104.85718,44.0083,103.95337,45.2926,102.11426,45.2926Zm-6.104-10.13128a.725.725,0,0,0-.74517.74511.71216.71216,0,0,0,.74517.72937.69927.69927,0,0,0,.72937-.72937A.7121.7121,0,0,0,96.01025,35.16132Zm-5.00964,8.46649V38.96643H93.7594a6.01645,6.01645,0,0,0,.1109-.99884H91.00061V35.03442a3.85826,3.85826,0,0,0-1.10986.17438v8.54584a2.22,2.22,0,0,0,2.45758,2.5368,4.0465,4.0465,0,0,0,1.42694-.25372c.06329-.30121.1109-.65.14264-.95129a4.15835,4.15835,0,0,1-1.3794.25372C91.55548,45.34015,91.00061,44.83276,91.00061,43.62781Zm4.45483,2.47339h1.10987V37.92H95.45544Zm15.17249-8.37146a11.81591,11.81591,0,0,0-2.98071.444V46.1012h1.10986V38.93469a8.32272,8.32272,0,0,1,1.83911-.22186c1.95014,0,2.50513.761,2.50513,2.23547v5.1529h1.10974V40.74225C114.21106,38.82373,113.30737,37.72974,110.62793,37.72974Zm-34.87878,0a11.81522,11.81522,0,0,0-2.98066.444V46.1012h1.10987V38.93469a8.32255,8.32255,0,0,1,1.83905-.22186c1.95013,0,2.50519.761,2.50519,2.23547v5.1529h1.10974V40.74225C79.33234,38.82373,78.42865,37.72974,75.74915,37.72974Zm-8.45032.444V46.1012h1.10986v-7.214a7.89857,7.89857,0,0,1,1.55371-.17438,9.64363,9.64363,0,0,1,1.22077.06335,3.913,3.913,0,0,0,.11108-.95129,11.08178,11.08178,0,0,0-1.36352-.06342A9.15356,9.15356,0,0,0,67.29883,38.17371Zm-5.13654-.444c-2.60016,0-3.66247,1.87085-3.66247,4.23327,0,2.72705,1.39526,4.32843,4.043,4.32843a4.823,4.823,0,0,0,2.52105-.60254,10.51855,10.51855,0,0,0,.17432-1.06219,5.37594,5.37594,0,0,1-2.66364.68176c-1.80731,0-2.80621-1.01471-2.949-2.91736h5.86639a6.69707,6.69707,0,0,0,.0633-.983C65.55524,39.36285,64.54053,37.72974,62.16229,37.72974Zm2.28321,3.66253H59.62555c.12689-1.64886.90369-2.69531,2.48932-2.69531,1.56958,0,2.33063,1.0622,2.33063,2.63184Z" transform="translate(0 -0.04673)"/>
  </g>
</svg>
