<svg id="Layer_1" data-name="Layer 1" xmlns="http://www.w3.org/2000/svg" viewBox="0 0 184 40">
  <defs>
    <style>
      .cls-1 {
        fill: #ec0000;
      }

      .cls-2 {
        fill: #fff;
      }
    </style>
  </defs>
  <title>cta</title>
  <g>
    <rect class="cls-1" width="184" height="40" rx="19.99998" ry="19.99998"/>
    <g>
      <path class="cls-2" d="M24.5835,26.438h-2.083V13.58838h7.251v1.77539h-5.168v4.0166h4.84277v1.78418H24.5835Z"/>
      <path class="cls-2" d="M32.08057,26.438V13.58838h2.10058V26.438Z"/>
      <path class="cls-2" d="M48.27881,26.438h-2.5752L39.38428,16.19873H39.314l.04395.57129q.123,1.63476.12305,2.98828V26.438H37.57373V13.58838h2.54883L46.42432,23.7749h.05273q-.01758-.20214-.07031-1.47217T46.354,20.3208V13.58838h1.92481Z"/>
      <path class="cls-2" d="M62.12158,19.89014a6.40367,6.40367,0,0,1-1.7666,4.86474A7.09556,7.09556,0,0,1,55.26611,26.438H51.67139V13.58838H55.644a6.57287,6.57287,0,0,1,4.77246,1.65234A6.17416,6.17416,0,0,1,62.12158,19.89014Zm-2.21484.07031q0-4.61426-4.31543-4.61426H53.772v9.3252h1.49414Q59.90674,24.67139,59.90674,19.96045Z"/>
      <path class="cls-2" d="M80.96533,19.99561A7.02436,7.02436,0,0,1,79.396,24.87354a6.59356,6.59356,0,0,1-8.91211.01318A7.07727,7.07727,0,0,1,68.92432,19.978a6.95859,6.95859,0,0,1,1.56933-4.88672,5.77811,5.77811,0,0,1,4.47754-1.70508,5.66379,5.66379,0,0,1,4.42969,1.73145A7.02155,7.02155,0,0,1,80.96533,19.99561Zm-9.80859,0a5.76181,5.76181,0,0,0,.958,3.59912,3.89822,3.89822,0,0,0,5.66406.01318,5.76557,5.76557,0,0,0,.9541-3.6123,5.79082,5.79082,0,0,0-.94434-3.58594A3.34256,3.34256,0,0,0,74.97119,15.188a3.41249,3.41249,0,0,0-2.85254,1.22168A5.71257,5.71257,0,0,0,71.15674,19.99561Z"/>
      <path class="cls-2" d="M93.79736,13.58838v8.31445a4.941,4.941,0,0,1-.61035,2.4917,4.07263,4.07263,0,0,1-1.76758,1.64356,6.13454,6.13454,0,0,1-2.76367.57568A5.17066,5.17066,0,0,1,84.938,25.34814a4.58052,4.58052,0,0,1-1.32715-3.48046v-8.2793h2.10937v8.12988a3.24838,3.24838,0,0,0,.73829,2.34668,3.0432,3.0432,0,0,0,2.26757.75586q2.9707,0,2.97071-3.12012v-8.1123Z"/>
      <path class="cls-2" d="M101.523,26.438H99.42236V15.39014H95.64307V13.58838h9.65918v1.80176H101.523Z"/>
      <path class="cls-2" d="M117.50146,26.438,113.7749,15.70654h-.07031q.14942,2.39063.14941,4.48242v6.249h-1.90722V13.58838h2.96191l3.56836,10.22168h.05274l3.67382-10.22168h2.97071V26.438h-2.02149V20.0835q0-.958.04785-2.4961.04981-1.53808.084-1.86328h-.07031L119.356,26.438Z"/>
      <path class="cls-2" d="M139.96631,19.99561a7.03344,7.03344,0,0,1-1.56836,4.87793,6.59357,6.59357,0,0,1-8.91211.01318,7.06811,7.06811,0,0,1-1.56055-4.90869,6.96748,6.96748,0,0,1,1.56836-4.88672,5.78318,5.78318,0,0,1,4.47852-1.70508,5.6638,5.6638,0,0,1,4.42969,1.73145A7.02159,7.02159,0,0,1,139.96631,19.99561Zm-9.8086,0a5.76188,5.76188,0,0,0,.958,3.59912,3.89936,3.89936,0,0,0,5.665.01318,5.77824,5.77824,0,0,0,.95313-3.6123,5.77791,5.77791,0,0,0-.94532-3.58594,3.33817,3.33817,0,0,0-2.8164-1.22168,3.408,3.408,0,0,0-2.85156,1.22168A5.70006,5.70006,0,0,0,130.15771,19.99561Z"/>
      <path class="cls-2" d="M144.82666,21.30518V26.438h-2.10059V13.58838H146.356a5.96407,5.96407,0,0,1,3.68261.93164,3.345,3.345,0,0,1,1.19532,2.8125,3.51561,3.51561,0,0,1-2.4961,3.41894l3.62989,5.68653h-2.39063l-3.07617-5.13281Zm0-1.74024h1.459a3.33152,3.33152,0,0,0,2.127-.54492,1.97707,1.97707,0,0,0,.65918-1.61719,1.74059,1.74059,0,0,0-.71192-1.56445,3.90331,3.90331,0,0,0-2.14453-.47461h-1.38867Z"/>
      <path class="cls-2" d="M161.49951,26.438H154.231V13.58838h7.26855v1.77539h-5.168v3.49805h4.84278v1.75781h-4.84278v4.03418h5.168Z"/>
    </g>
  </g>
</svg>
