<svg id="Layer_1" data-name="Layer 1" xmlns="http://www.w3.org/2000/svg" viewBox="0 0 240 87.40609">
  <defs>
    <style>
      .cls-1 {
        fill: none;
      }

      .cls-2 {
        fill: #ec0000;
      }
    </style>
  </defs>
  <title>logo-withclearspace</title>
  <g>
    <rect class="cls-1" width="240" height="87.40609"/>
    <path class="cls-2" d="M72.55707,29.56006l-1.90741-.8122c-2.47247-1.05981-3.84992-2.11932-3.84992-3.95611,0-1.87177,1.41285-3.07269,4.48566-3.07269a17.91578,17.91578,0,0,1,5.79266,1.02429,13.571,13.571,0,0,0,.70624-3.53217,19.37688,19.37688,0,0,0-6.46356-1.02429c-5.7218,0-8.51221,2.57855-8.51221,6.60486,0,3.744,2.2605,5.616,5.58069,7.06427l1.80127.777c3.32019,1.448,4.66229,2.40167,4.66229,4.45031,0,2.08387-1.83667,3.14337-5.12133,3.14337a16.49872,16.49872,0,0,1-6.46375-1.37731,11.872,11.872,0,0,0-.671,3.56738,16.99559,16.99559,0,0,0,7.24066,1.3421c6.0044,0,9.07721-2.79041,9.07721-6.85217C78.91455,33.48071,77.04266,31.46753,72.55707,29.56006Zm41.32635,2.43713V43.19373h3.88513V31.32617c0-4.27392-2.0838-6.78149-8.58276-6.78149a33.09636,33.09636,0,0,0-7.064.98883V43.19373h3.88513V28.14728a19.482,19.482,0,0,1,3.073-.28259C112.965,27.86469,113.88342,29.20709,113.88342,31.99719ZM145.603,41.07465l.21185,2.11908h3.56738V25.53351a19.7949,19.7949,0,0,0-6.67553-.98883c-6.53443,0-9.85438,3.53186-9.85438,9.74847,0,5.93353,3.1081,9.32428,7.77051,9.32428A5.41972,5.41972,0,0,0,145.603,41.07465Zm-8.79493-6.7815c0-3.95581,1.872-6.42846,5.89863-6.42846a16.04549,16.04549,0,0,1,2.7901.21185V39.16718a6.0837,6.0837,0,0,1-3.77924,1.27166C138.25635,40.43884,136.808,37.89575,136.808,34.29315Zm-8.972,9.32428a8.815,8.815,0,0,0,3.28467-.56512c.212-1.024.35327-2.225.45916-3.28455a8.80579,8.80579,0,0,1-3.03759.52966c-1.87189,0-3.00214-.88293-3.00214-3.17865V28.465h5.79254a29.91546,29.91546,0,0,0,.35315-3.32H125.5401v-6.6756a13.43573,13.43573,0,0,0-3.88525.56513V37.5777C121.65485,41.88684,124.05658,43.61743,127.836,43.61743Zm90.8833-19.07275a23.64932,23.64932,0,0,0-6.64032.98883V43.19373h3.88544V28.07654a19.5174,19.5174,0,0,1,2.86084-.21185,25.02748,25.02748,0,0,1,2.93151.14141,14.45885,14.45885,0,0,0,.35328-3.32031A31.69558,31.69558,0,0,0,218.7193,24.54468ZM89.12311,43.61743a5.41969,5.41969,0,0,0,4.98016-2.54278l.21185,2.11908h3.56739V25.53351a19.795,19.795,0,0,0-6.67554-.98883c-6.5343,0-9.85431,3.53186-9.85431,9.74847C81.35266,40.22668,84.46082,43.61743,89.12311,43.61743ZM91.207,27.86469a16.04679,16.04679,0,0,1,2.79022.21185V39.16718A6.084,6.084,0,0,1,90.218,40.43884c-3.46131,0-4.90943-2.54309-4.90943-6.14569C85.30853,30.33734,87.18036,27.86469,91.207,27.86469Zm109.56873-3.32c-6.18091,0-8.618,4.16772-8.618,9.43042,0,6.03973,3.14338,9.64233,9.64228,9.64233a13.36178,13.36178,0,0,0,5.722-1.13025c.24732-1.16546.45917-2.50757.60034-3.53186a15.14279,15.14279,0,0,1-6.21637,1.3421c-3.46148,0-5.298-1.51873-5.79241-4.66217H208.5108a20.69659,20.69659,0,0,0,.2121-3.00225C208.7229,28.1825,206.321,24.54468,200.7757,24.54468Zm-4.73285,7.841c.31775-3.00226,1.76605-4.59167,4.521-4.59167,2.68445,0,4.23841,1.69537,4.23841,4.59167Zm-30.65973-.38849V43.19373h3.88513V31.32617c0-4.27392-2.08386-6.78149-8.58276-6.78149a33.09644,33.09644,0,0,0-7.064.98883V43.19373h3.88513V28.14728a19.48072,19.48072,0,0,1,3.073-.28259C164.46472,27.86469,165.38312,29.20709,165.38312,31.99719ZM44.84351,25.00342a8.15091,8.15091,0,0,0-1.08435-3.72455l-5.88807-10.1983a8.15141,8.15141,0,0,1-.93145-2.4657l-.246.42621a8.15816,8.15816,0,0,0-.00018,8.1582L41.404,25.35809a8.1588,8.1588,0,0,1,0,8.15857l-.24615.42621a8.14787,8.14787,0,0,0-.9314-2.4657L35.91412,24.008l-2.75335-4.769a8.152,8.152,0,0,1-.93146-2.46563l-.246.4262a8.1583,8.1583,0,0,0-.01435,8.1327l-.00042.00024,4.72515,8.18414a8.1584,8.1584,0,0,1,0,8.15851l-.24615.42621a8.14905,8.14905,0,0,0-.9314-2.4657l-5.888-10.1983a8.15363,8.15363,0,0,1-1.08441-4.43286C22.24048,26.65131,17.89,30.148,17.89,34.19653c0,5.63233,8.4187,10.19818,18.80371,10.19818s18.80365-4.56585,18.80365-10.19818C55.49731,30.14783,51.14709,26.65021,44.84351,25.00342Zm144.13446-6.534a11.79792,11.79792,0,0,0-3.84992.52991v5.82788a15.19643,15.19643,0,0,0-2.89636-.28253c-6.53412,0-9.85413,3.53186-9.85413,9.74847,0,5.93353,3.10816,9.32428,7.77027,9.32428a5.35392,5.35392,0,0,0,5.0509-2.6842l.21185,2.2605H188.978Zm-3.84992,20.627a6.22656,6.22656,0,0,1-3.88519,1.3424c-3.46143,0-4.90942-2.54309-4.90942-6.14569,0-4.02655,1.83648-6.42846,5.6864-6.42846a15.53469,15.53469,0,0,1,3.10821.35327ZM82.98914,66.07977V59.0437h4.16418a9.08765,9.08765,0,0,0,.16736-1.50769H82.98914V53.10852a5.82416,5.82416,0,0,0-1.67536.26325V66.27118c0,2.6803,1.41193,3.8291,3.70954,3.8291a6.10759,6.10759,0,0,0,2.15393-.38293c.09552-.45472.16735-.9812.21527-1.43592a6.27719,6.27719,0,0,1-2.0821.383C83.82666,68.66443,82.98914,67.8985,82.98914,66.07977ZM72.93835,57.17694a17.83217,17.83217,0,0,0-4.49914.67017v11.966h1.67517V58.99579a12.56184,12.56184,0,0,1,2.77612-.335c2.94367,0,3.78119,1.14868,3.78119,3.37433v7.77795h1.67536v-8.089C78.34705,58.82831,76.98285,57.17694,72.93835,57.17694ZM62.64783,69.81311h1.67529V53.10852a7.22633,7.22633,0,0,0-1.67529.26325Zm31.182-12.63617c-3.92474,0-5.52819,2.824-5.52819,6.38983,0,4.11634,2.106,6.53351,6.1026,6.53351a7.27911,7.27911,0,0,0,3.80529-.90948,15.84153,15.84153,0,0,0,.26313-1.60334,8.11361,8.11361,0,0,1-4.02051,1.02906c-2.72809,0-4.23578-1.53162-4.4513-4.40351h8.85492a10.10857,10.10857,0,0,0,.09552-1.48376C98.95129,59.642,97.41968,57.17694,93.82983,57.17694Zm3.44642,5.52838h-7.2754c.19153-2.48889,1.36408-4.06842,3.75739-4.06842,2.3692,0,3.518,1.60333,3.518,3.97266Zm46.80737,7.10779H145.759V57.46417h-1.67535Zm30.77466-6.07873c0,4.0924,2.106,6.3659,5.50427,6.3659a4.84773,4.84773,0,0,0,3.25482-1.22052l.04791.93335h1.55561v-11.966a10.87346,10.87346,0,0,0-3.99665-.67017C176.94037,57.17694,174.85828,59.52234,174.85828,63.73438Zm8.68725,3.75732a4.22371,4.22371,0,0,1-3.0393,1.22046c-2.60865,0-3.94873-1.8905-3.94873-4.97778,0-3.20691,1.45983-5.07355,4.66674-5.07355a8.80387,8.80387,0,0,1,2.32129.28723Zm-16.56-10.31476a17.83421,17.83421,0,0,0-4.4992.67017v11.966h1.67535V58.99579a12.5607,12.5607,0,0,1,2.77594-.335c2.94361,0,3.78137,1.14868,3.78137,3.37433v7.77795h1.675v-8.089C172.394,58.82831,171.03,57.17694,166.98553,57.17694ZM188.475,69.81311h1.67529V53.10852a7.2253,7.2253,0,0,0-1.67529.26325ZM154.18262,57.17694c-3.70954,0-5.91132,2.489-5.91132,6.53351,0,3.68549,1.93842,6.38983,5.7677,6.38983,3.78131,0,5.935-2.48889,5.935-6.58124C159.974,59.88135,158.05951,57.17694,154.18262,57.17694Zm-.04785,11.41565c-2.72834,0-4.16425-1.79492-4.16425-5.00183,0-2.9436,1.36407-4.906,4.16425-4.906,2.7041,0,4.14025,1.81873,4.14025,4.95386C158.275,66.65405,156.91071,68.59259,154.13477,68.59259Zm-16.77533-2.51282V59.0437h4.16424A9.08765,9.08765,0,0,0,141.691,57.536h-4.3316V53.10852a5.82408,5.82408,0,0,0-1.6753.26325V66.27118c0,2.6803,1.41193,3.8291,3.70954,3.8291a6.10759,6.10759,0,0,0,2.15393-.38293c.09552-.45472.16736-.9812.21521-1.43592a6.2769,6.2769,0,0,1-2.08209.383C138.197,68.66443,137.35944,67.8985,137.35944,66.07977Zm-23.02106-8.90283a17.83428,17.83428,0,0,0-4.49921.67017v11.966h1.67536V58.99579a12.5607,12.5607,0,0,1,2.77594-.335c2.9436,0,3.78137,1.14868,3.78137,3.37433v7.77795h1.675v-8.089C119.74689,58.82831,118.38281,57.17694,114.33838,57.17694Zm30.58282-3.87683a1.09429,1.09429,0,0,0-1.12487,1.12469,1.07494,1.07494,0,0,0,1.12487,1.1009,1.05547,1.05547,0,0,0,1.10089-1.1009A1.07489,1.07489,0,0,0,144.9212,53.30011ZM122.21112,63.73438c0,4.0924,2.106,6.3659,5.50427,6.3659a4.84769,4.84769,0,0,0,3.25482-1.22052l.04792.93335h1.5556v-11.966a10.87341,10.87341,0,0,0-3.99664-.67017C124.29321,57.17694,122.21112,59.52234,122.21112,63.73438Zm8.68726,3.75732a4.22373,4.22373,0,0,1-3.03931,1.22046c-2.60864,0-3.94873-1.8905-3.94873-4.97778,0-3.20691,1.45984-5.07355,4.66675-5.07355a8.80387,8.80387,0,0,1,2.32129.28723Zm-29.31525-9.64459v11.966h1.67529v-10.889a11.92237,11.92237,0,0,1,2.34522-.26324,14.56484,14.56484,0,0,1,1.84271.09564,5.9082,5.9082,0,0,0,.1676-1.43585,16.71383,16.71383,0,0,0-2.05816-.09577A13.81747,13.81747,0,0,0,101.58313,57.84711Z" transform="translate(0 -0.29696)"/>
  </g>
</svg>
