<svg id="Layer_1" data-name="Layer 1" xmlns="http://www.w3.org/2000/svg" viewBox="0 0 150 42">
  <defs>
    <style>
      .cls-1 {
        fill: #ec0000;
      }

      .cls-2 {
        fill: #fff;
      }
    </style>
  </defs>
  <title>CTA</title>
  <g>
    <rect class="cls-1" width="150" height="42" rx="20.89272"/>
    <g>
      <path class="cls-2" d="M22.7663,16.13625v4.12421h4.96152a10.16226,10.16226,0,0,1-.16633,1.46042H22.7663v5.75138H21.13737V14.67582h6.99784a7.6538,7.6538,0,0,1-.16693,1.46043Z"/>
      <path class="cls-2" d="M30.042,15.35968a.99153.99153,0,0,1,1.01845-1.05408.9811.9811,0,0,1,1.01786,1.05408,1.0183,1.0183,0,1,1-2.03631,0Zm.22237,2.94011H31.8565v9.17247H30.26433Z"/>
      <path class="cls-2" d="M42.16825,21.24049v6.23177H40.5574V21.73954c0-1.59045-.57372-2.34835-1.9622-2.34835A3.01632,3.01632,0,0,0,36.42932,20.408v7.06431H34.83715V18.29979h1.48068l.09281,1.40564a2.95909,2.95909,0,0,1,2.777-1.62717C41.16847,18.07826,42.16825,19.31715,42.16825,21.24049Z"/>
      <path class="cls-2" d="M52.16482,14.435V27.47226H50.68353l-.0922-1.22022a2.6186,2.6186,0,0,1-2.48106,1.44236c-2.16589,0-3.66525-1.53507-3.66525-4.734,0-2.97743,1.35111-4.88211,4.49869-4.88211a11.0872,11.0872,0,0,1,1.62894.11076v-3.5132A4.74607,4.74607,0,0,1,52.16482,14.435ZM50.57265,25.47487V19.59466a5.7909,5.7909,0,0,0-1.61086-.20347c-2.12852,0-2.90652,1.47908-2.90652,3.53186,0,2.31163.88889,3.45841,2.51782,3.45841A2.646,2.646,0,0,0,50.57265,25.47487Z"/>
      <path class="cls-2" d="M58.64379,22.88633c0-2.95877,1.48128-4.80807,4.18351-4.80807,2.70284,0,4.2028,1.8493,4.2028,4.80807,0,2.97682-1.53672,4.80807-4.2028,4.80807C60.16183,27.6944,58.64379,25.86315,58.64379,22.88633Zm6.7387,0c0-2.18221-.81477-3.49514-2.55519-3.49514-1.73981,0-2.5359,1.29427-2.5359,3.49514,0,2.21892.83285,3.49513,2.5359,3.49513C64.531,26.38146,65.38249,25.10525,65.38249,22.88633Z"/>
      <path class="cls-2" d="M76.56445,18.29979v9.17247H75.08316l-.0922-1.40564a2.95919,2.95919,0,0,1-2.777,1.62778c-1.98087,0-2.98065-1.23949-2.98065-3.16224V18.29979H70.8442v5.73272c0,1.59045.57372,2.349,1.9622,2.349a3.01794,3.01794,0,0,0,2.16588-1.01735V18.29979Z"/>
      <path class="cls-2" d="M82.48839,26.32548a2.96147,2.96147,0,0,0,1.36979-.351,10.09117,10.09117,0,0,1-.185,1.387,3.79887,3.79887,0,0,1-1.5548.3329c-1.59217,0-2.68476-.85061-2.68476-2.86667V15.78529a4.69353,4.69353,0,0,1,1.59217-.2408v2.7553h2.86977a10.11073,10.11073,0,0,1-.14825,1.33159H81.02578v5.03021C81.02578,25.86315,81.50729,26.32548,82.48839,26.32548Z"/>
      <path class="cls-2" d="M102.48153,21.24049v6.23177h-1.59218V21.72088c0-1.57179-.59239-2.32969-1.99895-2.32969a3.1302,3.1302,0,0,0-2.16588.9987,4.16365,4.16365,0,0,1,.07412.8506v6.23177H95.18779V21.73954c0-1.59045-.57371-2.34835-1.96219-2.34835A3.0163,3.0163,0,0,0,91.05972,20.408v7.06431H89.46754V18.29979h1.48069l.0928,1.40564a2.95911,2.95911,0,0,1,2.777-1.62717,2.68534,2.68534,0,0,1,2.72092,1.64583,3.17788,3.17788,0,0,1,2.94389-1.64583C101.48175,18.07826,102.48153,19.31715,102.48153,21.24049Z"/>
      <path class="cls-2" d="M104.68537,22.88633c0-2.95877,1.48129-4.80807,4.18352-4.80807,2.70284,0,4.2028,1.8493,4.2028,4.80807,0,2.97682-1.53672,4.80807-4.2028,4.80807C106.20342,27.6944,104.68537,25.86315,104.68537,22.88633Zm6.73871,0c0-2.18221-.81477-3.49514-2.55519-3.49514-1.73982,0-2.5359,1.29427-2.5359,3.49514,0,2.21892.83285,3.49513,2.5359,3.49513C110.57255,26.38146,111.42408,25.10525,111.42408,22.88633Z"/>
      <path class="cls-2" d="M120.32867,18.22634a6.56711,6.56711,0,0,1-.14825,1.405,5.51652,5.51652,0,0,0-1.11066-.11076,2.795,2.795,0,0,0-2.11044.906v7.04565h-1.59218V18.29979h1.49937l.07412,1.33159a2.5907,2.5907,0,0,1,2.33282-1.53446A4.44823,4.44823,0,0,1,120.32867,18.22634Z"/>
      <path class="cls-2" d="M128.76983,23.45942h-6.07159c.185,2.10816,1.24023,2.922,3.0361,2.922a5.48654,5.48654,0,0,0,2.81372-.77716,8.963,8.963,0,0,1-.24046,1.461,6.093,6.093,0,0,1-2.66607.62908c-3.16566,0-4.60958-1.868-4.60958-4.86346,0-2.66319,1.24023-4.75268,4.09131-4.75268,2.5359,0,3.73937,1.68255,3.73937,4.12361A7.89088,7.89088,0,0,1,128.76983,23.45942Zm-6.07159-1.31294h4.53546c0-1.60911-.64784-2.75529-2.16588-2.75529C123.66066,19.39119,122.84589,20.408,122.69824,22.14648Z"/>
    </g>
  </g>
</svg>
