<svg id="Layer_1" data-name="Layer 1" xmlns="http://www.w3.org/2000/svg" viewBox="0 0 150 46">
  <defs>
    <style>
      .cls-1 {
        fill: #ec0000;
      }
    </style>
  </defs>
  <title>logo-for-300x600</title>
  <path class="cls-1" d="M80.75208,26.127a6.47108,6.47108,0,0,0,2.41113-.41485c.15558-.75171.25934-1.6333.3371-2.41107a6.46489,6.46489,0,0,1-2.2298.38879c-1.37409,0-2.20374-.64807-2.20374-2.33331V15.00421h4.252a21.94252,21.94252,0,0,0,.25927-2.43707H79.06677V7.66687a9.8635,9.8635,0,0,0-2.85205.41486V21.69348C76.21472,24.85663,77.97778,26.127,80.75208,26.127Zm13.042-1.86657.15551,1.55554h2.61866V12.85229a14.53173,14.53173,0,0,0-4.90027-.72583c-4.79663,0-7.23364,2.5926-7.23364,7.15595,0,4.35559,2.28149,6.8446,5.704,6.8446A3.97848,3.97848,0,0,0,93.79407,24.26044Zm-6.456-4.978c0-2.90381,1.37421-4.71887,4.3299-4.71887a11.77362,11.77362,0,0,1,2.04816.15552v8.14117a4.46563,4.46563,0,0,1-2.77417.93347C88.40125,23.7937,87.33807,21.92694,87.33807,19.28241Zm46.956-7.15595c-4.53711,0-6.32611,3.05933-6.32611,6.92249,0,4.43353,2.30743,7.07806,7.078,7.07806a9.808,9.808,0,0,0,4.20026-.82971c.18158-.85553.33709-1.8407.44067-2.59259a11.11578,11.11578,0,0,1-4.56317.98517c-2.5409,0-3.889-1.11481-4.25195-3.4223h9.10028a15.19055,15.19055,0,0,0,.15576-2.2038C140.12781,14.79681,138.36462,12.12646,134.29407,12.12646Zm-3.47418,5.75574c.23327-2.20379,1.29638-3.37054,3.31866-3.37054,1.97058,0,3.11127,1.2445,3.11127,3.37054Zm16.64581-5.75574a17.362,17.362,0,0,0-4.87439.72583V25.816h2.85217V14.71906a14.31946,14.31946,0,0,1,2.1-.15552,18.37709,18.37709,0,0,1,2.152.10382,10.61589,10.61589,0,0,0,.25928-2.43732A23.2588,23.2588,0,0,0,147.4657,12.12646ZM52.33453,26.127a3.97849,3.97849,0,0,0,3.65577-1.86657l.15551,1.55554h2.61866V12.85229a14.5315,14.5315,0,0,0-4.90027-.72583c-4.79651,0-7.23358,2.5926-7.23358,7.15595C46.63062,23.638,48.91217,26.127,52.33453,26.127ZM53.8642,14.56354a11.77367,11.77367,0,0,1,2.04821.15552v8.14117a4.46561,4.46561,0,0,1-2.77417.93347c-2.54077,0-3.60382-1.86676-3.60382-4.51129C49.53442,16.3786,50.90851,14.56354,53.8642,14.56354ZM40.17413,15.808,38.774,15.21185c-1.81494-.778-2.826-1.55572-2.826-2.904,0-1.374,1.03705-2.25555,3.29272-2.25555a13.15041,13.15041,0,0,1,4.25214.75195,9.96292,9.96292,0,0,0,.51843-2.59284,14.22359,14.22359,0,0,0-4.74463-.75189c-4.20013,0-6.24847,1.89282-6.24847,4.84833,0,2.74835,1.65936,4.1225,4.09656,5.18561l1.32226.57037c2.4372,1.06293,3.42236,1.76294,3.42236,3.26679,0,1.52966-1.3482,2.30743-3.75933,2.30743A12.1111,12.1111,0,0,1,33.35522,22.627a8.71542,8.71542,0,0,0-.49261,2.61866,12.47615,12.47615,0,0,0,5.31506.98516c4.4076,0,6.66321-2.04827,6.66321-5.0299C44.84088,18.686,43.46686,17.20825,40.17413,15.808Zm85.45972-8.14117a8.65979,8.65979,0,0,0-2.826.389v4.278a11.15769,11.15769,0,0,0-2.1261-.2074c-4.79645,0-7.23352,2.5926-7.23352,7.15595,0,4.35559,2.28156,6.8446,5.70386,6.8446a3.93019,3.93019,0,0,0,3.70764-1.97039l.15552,1.65936h2.61865Zm-2.826,15.14142a4.57056,4.57056,0,0,1-2.852.98541c-2.54089,0-3.60382-1.86676-3.60382-4.51129,0-2.95575,1.34814-4.71887,4.17419-4.71887a11.40376,11.40376,0,0,1,2.28162.25934Zm-14.494-5.21124V25.816h2.85193V17.10443c0-3.13727-1.52966-4.978-6.30023-4.978a24.295,24.295,0,0,0-5.18543.72583V25.816H102.532v-11.045a14.30182,14.30182,0,0,1,2.25574-.2074C107.63971,14.56354,108.31384,15.549,108.31384,17.59705ZM19.83075,12.4632a5.98284,5.98284,0,0,0-.796-2.734L14.71265,2.243a5.9839,5.9839,0,0,1-.68378-1.81l-.1806.31287a5.9887,5.9887,0,0,0-.00013,5.98859L17.306,12.72357a5.989,5.989,0,0,1,0,5.98883l-.18066.31287a5.98124,5.98124,0,0,0-.68372-1.80994l-3.16553-5.48285L11.25494,8.23181a5.98561,5.98561,0,0,1-.68371-1.80993l-.18061.31286a5.98846,5.98846,0,0,0-.01055,5.96985l-.00031.00018,3.46851,6.00763a5.98874,5.98874,0,0,1,0,5.98883l-.18067.31287a5.9814,5.9814,0,0,0-.68365-1.80994L8.6618,15.718a5.98557,5.98557,0,0,1-.79608-3.254C3.23883,13.67285.04529,16.23962.04529,19.21149c0,4.13446,6.17981,7.48608,13.803,7.48608s13.803-3.35162,13.803-7.48608C27.65125,16.2395,24.458,13.672,19.83075,12.4632Zm50.67932,5.13385V25.816H73.362V17.10443c0-3.13727-1.52966-4.978-6.30023-4.978a24.295,24.295,0,0,0-5.18543.72583V25.816h2.85193v-11.045a14.30235,14.30235,0,0,1,2.25574-.2074C69.83594,14.56354,70.51007,15.549,70.51007,17.59705ZM61.481,36.57239v8.78369h1.22973V37.363a8.75037,8.75037,0,0,1,1.72156-.1933,10.68529,10.68529,0,0,1,1.3526.07025,4.33666,4.33666,0,0,0,.123-1.054,12.26884,12.26884,0,0,0-1.51081-.07031A10.14227,10.14227,0,0,0,61.481,36.57239Zm-5.69135-.49195c-2.881,0-4.058,2.073-4.058,4.6905,0,3.02166,1.5459,4.796,4.47967,4.796a5.34356,5.34356,0,0,0,2.79328-.66767,11.63433,11.63433,0,0,0,.19317-1.17694,5.95558,5.95558,0,0,1-2.95129.75543c-2.00256,0-3.10932-1.12433-3.26752-3.23242h6.5a7.42191,7.42191,0,0,0,.07013-1.08917C59.549,37.89,58.42468,36.08044,55.78961,36.08044Zm2.52985,4.05817H52.97888c.14063-1.827,1.00128-2.98645,2.75818-2.98645,1.73908,0,2.5824,1.17694,2.5824,2.91614ZM40.454,36.08044a13.09088,13.09088,0,0,0-3.30267.49195v8.78369H38.381V37.41559a9.2206,9.2206,0,0,1,2.03784-.24591c2.16083,0,2.77564.8432,2.77564,2.477v5.70941h1.2298V39.41833C44.42432,37.29266,43.42291,36.08044,40.454,36.08044Zm-7.55389,9.27564h1.22979V33.094a5.30507,5.30507,0,0,0-1.22979.19324Zm14.9317-2.74048V37.45074h3.05676a6.665,6.665,0,0,0,.12286-1.10675H47.83185v-3.25a4.2767,4.2767,0,0,0-1.2298.19324v9.46893c0,1.96747,1.03644,2.8108,2.723,2.8108a4.48343,4.48343,0,0,0,1.58112-.28113c.07013-.3338.12286-.72028.158-1.054a4.60815,4.60815,0,0,1-1.52838.28113C48.44666,44.51294,47.83185,43.95068,47.83185,42.6156Zm61.65826-6.53516a13.09249,13.09249,0,0,0-3.30267.49195v8.78369h1.2298V37.41559a9.21948,9.21948,0,0,1,2.03772-.24591c2.16076,0,2.77569.8432,2.77569,2.477v5.70941h1.22962V39.41833C113.46027,37.29266,112.459,36.08044,109.49011,36.08044Zm-38.64612,0a13.09205,13.09205,0,0,0-3.30261.49195v8.78369h1.2298V37.41559a9.21906,9.21906,0,0,1,2.03772-.24591c2.1607,0,2.77569.8432,2.77569,2.477v5.70941h1.22962V39.41833C74.81421,37.29266,73.81293,36.08044,70.844,36.08044Zm29.248,0c-2.723,0-4.33929,1.82709-4.33929,4.796,0,2.70533,1.423,4.69056,4.23382,4.69056,2.77576,0,4.35669-1.827,4.35669-4.83106C104.34326,38.06561,102.93787,36.08044,100.092,36.08044Zm-.03516,8.37977c-2.00274,0-3.05676-1.31757-3.05676-3.6717,0-2.1607,1.00128-3.60125,3.05676-3.60125,1.985,0,3.03919,1.33508,3.03919,3.63641C103.09607,43.03717,102.0946,44.46021,100.05688,44.46021Zm25.20771.89587h1.22979V33.094a5.30456,5.30456,0,0,0-1.22979.19324Zm-9.99542-4.4621c0,3.004,1.54595,4.673,4.04046,4.673a3.5587,3.5587,0,0,0,2.38922-.89594l.03516.68506h1.14191V36.57239a7.98126,7.98126,0,0,0-2.93372-.49195C116.79755,36.08044,115.26917,37.80206,115.26917,40.894Zm6.37695,2.75806a3.10037,3.10037,0,0,1-2.231.89593c-1.91492,0-2.89862-1.38775-2.89862-3.654,0-2.35406,1.07159-3.7243,3.42572-3.7243a6.46355,6.46355,0,0,1,1.70392.21087ZM87.74286,42.6156V37.45074h3.05676a6.666,6.666,0,0,0,.12287-1.10675H87.74286v-3.25a4.2767,4.2767,0,0,0-1.2298.19324v9.46893c0,1.96747,1.03644,2.8108,2.723,2.8108a4.48343,4.48343,0,0,0,1.58112-.28113c.07013-.3338.12286-.72028.158-1.054a4.60815,4.60815,0,0,1-1.52838.28113C88.35767,44.51294,87.74286,43.95068,87.74286,42.6156ZM76.62305,40.894c0,3.004,1.546,4.673,4.04052,4.673A3.55873,3.55873,0,0,0,83.0528,44.671l.03515.68506h1.14191V36.57239a7.98155,7.98155,0,0,0-2.93378-.49195C78.15143,36.08044,76.62305,37.80206,76.62305,40.894Zm6.377,2.75806A3.1004,3.1004,0,0,1,80.769,44.548c-1.91485,0-2.89856-1.38775-2.89856-3.654,0-2.35406,1.0716-3.7243,3.42566-3.7243a6.46363,6.46363,0,0,1,1.704.21087Zm9.67871,1.704h1.2298V36.29126h-1.2298Zm.61481-12.12146a.80326.80326,0,0,0-.82568.82562.789.789,0,0,0,.82568.80811.7748.7748,0,0,0,.80817-.80811A.78907.78907,0,0,0,93.29358,33.23462Z"/>
</svg>
